<?xml version="1.0" encoding="UTF-8"?>
<svg id="Laag_2" data-name="Laag 2" xmlns="http://www.w3.org/2000/svg" viewBox="0 0 34.45 90.05">
  <defs>
    <style>
      .cls-1 {
        fill: #326a8d;
        stroke-width: 0px;
      }
    </style>
  </defs>
  <g id="Laag_1-2" data-name="Laag 1">
    <g id="bmoIzz">
      <path class="cls-1" d="m23.73,0c-.37,2.53-.77,5.07-1.11,7.61-.13.98-.25,1.98-.21,2.96.05,1.55,1.24,2.5,2.22,3.81.02-2.65,1.52-4.03,3.53-5.04.85-.43,1.65-.95,2.5-1.44.12,1.48.06,2.9.39,4.24.4,1.65,1.01,3.29,1.73,4.83,2.34,5,1.83,9.6-1.64,13.89-.11.14-.21.28-.31.43-.01.02-.01.05-.05.24.67,0,1.32,0,1.97,0,1.19.01,1.74.53,1.7,1.71-.15,4.63-2.35,8.15-5.95,10.9-.44.34-.89.7-1.39.91-.97.39-1.2,1.05-1.12,2.04.1,1.16.02,2.34.02,3.51,0,1.54-.45,1.99-1.96,2.01-.2,0-.4,0-.71,0-.09,1.17-.21,2.3-.27,3.43-.14,2.63-.3,5.26-.39,7.89-.26,8.25-.46,16.5-.75,24.75-.02.48-.55.93-.84,1.4h-7.74c-.29-.5-.81-.99-.83-1.51-.29-6.43-.51-12.87-.76-19.3-.21-5.44-.45-10.88-.68-16.31,0-.08-.03-.17-.05-.24-.06-.03-.11-.08-.16-.09-2.19-.11-2.4-.34-2.4-2.56,0-1.2-.03-2.4.01-3.6.02-.56-.15-.86-.66-1.15-3.66-2.07-6.27-5.03-7.36-9.16-.24-.9-.36-1.83-.44-2.76-.1-1.23.5-1.83,1.76-1.86.85-.02,1.69,0,2.55,0-.29-1.03-.61-1.99-.81-2.97-.53-2.48.04-4.87.75-7.23.33-1.08.63-2.18,1.01-3.25.68-1.87.33-3.67-.39-5.54,2.5.58,4.54,1.69,6.12,3.7,0-.62,0-1.24,0-1.85.03-2.56,1.16-4.66,2.73-6.57,2.46-2.98,5.66-5.05,8.87-7.09.33-.21.63-.48.95-.72.06,0,.12,0,.18,0Zm.04,22.31c.12-.59.24-1.06.31-1.55.29-1.85-.57-3.28-1.72-4.6-1.29-1.49-2.61-2.98-2.75-5.05-.11-1.56-.02-3.13-.02-4.83-1.37,1.38-2.87,2.72-4.15,4.25-.72.86-1.23,1.99-1.53,3.09-.56,2.01-.23,4.06.26,6.06.34,1.39.72,2.78,1.09,4.18-.96.15-1.82.29-2.77.44-.4-2.91-1.56-5.31-4.26-6.65-.5,1.78-.96,3.55-1.5,5.3-.83,2.7-.95,5.33.65,7.82.27.43.52.76,1.15.76,5.85-.03,11.71,0,17.56-.02.35,0,.82-.19,1.04-.45,1-1.18,2.01-2.37,2.87-3.65,1.3-1.95,1.82-4.1,1.12-6.42-.44-1.44-.95-2.86-1.43-4.3-.44-1.34-.88-2.68-1.32-4.02-1.14.65-1.38,1.17-1.04,2.84.55,2.68-.01,5.19-.98,7.74-.89-.32-1.73-.62-2.58-.93Zm7.38,12.08H3.31c.51,3.12,1.95,5.62,4.42,7.46,3.77,2.83,8.08,3.53,12.62,2.75,3.46-.6,6.5-2.08,8.66-4.99,1.14-1.54,1.92-3.23,2.14-5.22Zm-17.22,18.24c.46,11.58.91,23.09,1.36,34.55h3.79c.42-11.55.84-23.03,1.27-34.55h-6.42Zm9.22-2.88v-2.9c-3.95,1.15-7.86,1.13-11.78.02v2.87h11.78Z"/>
    </g>
  </g>
</svg>